<svg id="Livello_1" data-name="Livello 1" xmlns="http://www.w3.org/2000/svg" xmlns:xlink="http://www.w3.org/1999/xlink" viewBox="0 0 1080 1080"><defs><style>.cls-1{fill:#fff;}.cls-2{clip-path:url(#clip-path);}.cls-3{clip-path:url(#clip-path-2);}.cls-4{clip-path:url(#clip-path-3);}.cls-5{clip-path:url(#clip-path-4);}.cls-6{clip-path:url(#clip-path-5);}</style><clipPath id="clip-path"><path class="cls-1" d="M646,427.47v22.28H433.62V427.5A20.39,20.39,0,0,1,454,407.11H625.69A20.34,20.34,0,0,1,646,427.47Z"/></clipPath><clipPath id="clip-path-2"><path class="cls-1" d="M666.15,510.63v42.66a20.35,20.35,0,0,1-18.54,20.28H631.84a9.45,9.45,0,0,0-1.07.09,5.89,5.89,0,0,0-4.77,5c0,.14,0,.29-.07.43v10.79a20.35,20.35,0,0,1-20.36,20.37H431.73a20.36,20.36,0,0,1-20.37-20.37V567.57H612.23a11.22,11.22,0,0,0,10.42-7,11,11,0,0,0,.84-4.27V544.21a11.35,11.35,0,0,0-.84-4.26,11.2,11.2,0,0,0-9.4-7l-145-.06a21.07,21.07,0,0,1-5-.62,20.39,20.39,0,0,1-15.37-19.75V490.28H645.79A20.34,20.34,0,0,1,666.15,510.63Z"/></clipPath><clipPath id="clip-path-3"><path class="cls-1" d="M937,427.47v22.28H724.63V427.5A20.39,20.39,0,0,1,745,407.11H916.7A20.34,20.34,0,0,1,937,427.47Z"/></clipPath><clipPath id="clip-path-4"><path class="cls-1" d="M957.17,510.63v42.66a20.35,20.35,0,0,1-18.55,20.28H922.85a9.09,9.09,0,0,0-1.06.09,5.91,5.91,0,0,0-4.78,5c0,.14,0,.29-.07.43v10.79a20.35,20.35,0,0,1-20.36,20.37H722.74a20.35,20.35,0,0,1-20.36-20.37V567.57H903.24a11.22,11.22,0,0,0,10.42-7,11,11,0,0,0,.84-4.27V544.21a11.35,11.35,0,0,0-.84-4.26,11.2,11.2,0,0,0-9.4-7l-145-.06a21.07,21.07,0,0,1-5-.62,20.45,20.45,0,0,1-15.37-19.75V490.28H936.8A20.35,20.35,0,0,1,957.17,510.63Z"/></clipPath><clipPath id="clip-path-5"><path class="cls-1" d="M375.4,468.34v30.24c0,9.07,0,18.06,0,27.09a50.44,50.44,0,0,1-22.47,41.88,49.38,49.38,0,0,1-12.18,5.8c-2.83.9-5.26,2.26-5.59,5.55-.5,5.52.76,11.08-.75,16.52a20.68,20.68,0,0,1-19.74,14.8c-8.28.07-16.52,0-24.76,0H156.82c-12.22,0-26.59,1.25-32.53-12.29a24.27,24.27,0,0,1-1.69-10.18V490.23h13.22c3,0,5.91,0,8.92,0a15.5,15.5,0,0,1,2.26.14,20.59,20.59,0,0,1,18.31,20.21c.07,5.23,0,10.46,0,15.69v41.2H301.06c2.79,0,18.48-.43,21.31-1.25,11.4-3.41,8.64-14.26,9.25-26.37,0-.22,0-.43,0-.68.15-7.53,0-15.08,0-22.61V486.08c0-2.76,0-5.52,0-8.28a28.23,28.23,0,0,0-4.55-14,30.68,30.68,0,0,0-17.29-13.05,21,21,0,0,0-6-1H122.6V427.57a20.71,20.71,0,0,1,20.68-20.67H314.13a61.32,61.32,0,0,1,61.27,61.44Z"/></clipPath></defs><title>loghi dss-dss security</title><path class="cls-1" d="M646,427.47v22.28H433.62V427.5A20.39,20.39,0,0,1,454,407.11H625.69A20.34,20.34,0,0,1,646,427.47Z"/><g class="cls-2"><polygon class="cls-1" points="435.82 407.11 435.16 449.75 433.62 449.75 433.62 407.11 435.82 407.11"/><polygon class="cls-1" points="449.43 407.11 448.77 449.75 435.16 449.75 435.82 407.11 449.43 407.11"/><polygon class="cls-1" points="463.05 407.11 462.38 449.75 448.77 449.75 449.43 407.11 463.05 407.11"/><polygon class="cls-1" points="476.65 407.11 475.99 449.75 462.38 449.75 463.05 407.11 476.65 407.11"/><polygon class="cls-1" points="490.27 407.11 489.6 449.75 475.99 449.75 476.65 407.11 490.27 407.11"/><polygon class="cls-1" points="503.88 407.11 503.21 449.75 489.6 449.75 490.27 407.11 503.88 407.11"/><polygon class="cls-1" points="517.49 407.11 516.82 449.75 503.21 449.75 503.88 407.11 517.49 407.11"/><polygon class="cls-1" points="531.1 407.11 530.43 449.75 516.82 449.75 517.49 407.11 531.1 407.11"/><polygon class="cls-1" points="544.71 407.11 544.04 449.75 530.43 449.75 531.1 407.11 544.71 407.11"/><polygon class="cls-1" points="558.32 407.11 557.65 449.75 544.04 449.75 544.71 407.11 558.32 407.11"/><polygon class="cls-1" points="571.93 407.11 571.26 449.75 557.65 449.75 558.32 407.11 571.93 407.11"/><polygon class="cls-1" points="585.54 407.11 584.88 449.75 571.26 449.75 571.93 407.11 585.54 407.11"/><polygon class="cls-1" points="599.15 407.11 598.49 449.75 584.88 449.75 585.54 407.11 599.15 407.11"/><polygon class="cls-1" points="612.76 407.11 612.1 449.75 598.49 449.75 599.15 407.11 612.76 407.11"/><polygon class="cls-1" points="626.38 407.11 625.71 449.75 612.1 449.75 612.76 407.11 626.38 407.11"/><polygon class="cls-1" points="639.99 407.11 639.32 449.75 625.71 449.75 626.38 407.11 639.99 407.11"/><polygon class="cls-1" points="639.32 449.75 639.99 407.11 646.03 407.11 646.03 449.75 639.32 449.75"/></g><path class="cls-1" d="M666.15,510.63v42.66a20.35,20.35,0,0,1-18.54,20.28H631.84a9.45,9.45,0,0,0-1.07.09,5.89,5.89,0,0,0-4.77,5c0,.14,0,.29-.07.43v10.79a20.35,20.35,0,0,1-20.36,20.37H431.73a20.36,20.36,0,0,1-20.37-20.37V567.57H612.23a11.22,11.22,0,0,0,10.42-7,11,11,0,0,0,.84-4.27V544.21a11.35,11.35,0,0,0-.84-4.26,11.2,11.2,0,0,0-9.4-7l-145-.06a21.07,21.07,0,0,1-5-.62,20.39,20.39,0,0,1-15.37-19.75V490.28H645.79A20.34,20.34,0,0,1,666.15,510.63Z"/><g class="cls-3"><polygon class="cls-1" points="420.91 490.28 419.04 610.22 411.36 610.22 411.36 490.28 420.91 490.28"/><polygon class="cls-1" points="434.52 490.28 432.65 610.22 419.04 610.22 420.91 490.28 434.52 490.28"/><polygon class="cls-1" points="448.13 490.28 446.26 610.22 432.65 610.22 434.52 490.28 448.13 490.28"/><polygon class="cls-1" points="461.75 490.28 459.87 610.22 446.26 610.22 448.13 490.28 461.75 490.28"/><polygon class="cls-1" points="475.36 490.28 473.48 610.22 459.87 610.22 461.75 490.28 475.36 490.28"/><polygon class="cls-1" points="488.97 490.28 487.09 610.22 473.48 610.22 475.36 490.28 488.97 490.28"/><polygon class="cls-1" points="502.58 490.28 500.7 610.22 487.09 610.22 488.97 490.28 502.58 490.28"/><polygon class="cls-1" points="516.19 490.28 514.31 610.22 500.7 610.22 502.58 490.28 516.19 490.28"/><polygon class="cls-1" points="529.8 490.28 527.92 610.22 514.31 610.22 516.19 490.28 529.8 490.28"/><polygon class="cls-1" points="543.41 490.28 541.54 610.22 527.92 610.22 529.8 490.28 543.41 490.28"/><polygon class="cls-1" points="557.02 490.28 555.15 610.22 541.54 610.22 543.41 490.28 557.02 490.28"/><polygon class="cls-1" points="570.63 490.28 568.76 610.22 555.15 610.22 557.02 490.28 570.63 490.28"/><polygon class="cls-1" points="584.24 490.28 582.37 610.22 568.76 610.22 570.63 490.28 584.24 490.28"/><polygon class="cls-1" points="597.85 490.28 595.98 610.22 582.37 610.22 584.24 490.28 597.85 490.28"/><polygon class="cls-1" points="611.46 490.28 609.59 610.22 595.98 610.22 597.85 490.28 611.46 490.28"/><polygon class="cls-1" points="625.08 490.28 623.2 610.22 609.59 610.22 611.46 490.28 625.08 490.28"/><polygon class="cls-1" points="638.69 490.28 636.81 610.22 623.2 610.22 625.08 490.28 638.69 490.28"/><polygon class="cls-1" points="652.3 490.28 650.42 610.22 636.81 610.22 638.69 490.28 652.3 490.28"/><polygon class="cls-1" points="665.91 490.28 664.03 610.22 650.42 610.22 652.3 490.28 665.91 490.28"/><polygon class="cls-1" points="664.03 610.22 665.91 490.28 666.15 490.28 666.15 610.22 664.03 610.22"/></g><path class="cls-1" d="M937,427.47v22.28H724.63V427.5A20.39,20.39,0,0,1,745,407.11H916.7A20.34,20.34,0,0,1,937,427.47Z"/><g class="cls-4"><polygon class="cls-1" points="726.84 407.11 726.17 449.75 724.63 449.75 724.63 407.11 726.84 407.11"/><polygon class="cls-1" points="740.45 407.11 739.78 449.75 726.17 449.75 726.84 407.11 740.45 407.11"/><polygon class="cls-1" points="754.06 407.11 753.39 449.75 739.78 449.75 740.45 407.11 754.06 407.11"/><polygon class="cls-1" points="767.67 407.11 767 449.75 753.39 449.75 754.06 407.11 767.67 407.11"/><polygon class="cls-1" points="781.28 407.11 780.61 449.75 767 449.75 767.67 407.11 781.28 407.11"/><polygon class="cls-1" points="794.89 407.11 794.22 449.75 780.61 449.75 781.28 407.11 794.89 407.11"/><polygon class="cls-1" points="808.5 407.11 807.83 449.75 794.22 449.75 794.89 407.11 808.5 407.11"/><polygon class="cls-1" points="822.11 407.11 821.45 449.75 807.83 449.75 808.5 407.11 822.11 407.11"/><polygon class="cls-1" points="835.72 407.11 835.06 449.75 821.45 449.75 822.11 407.11 835.72 407.11"/><polygon class="cls-1" points="849.33 407.11 848.67 449.75 835.06 449.75 835.72 407.11 849.33 407.11"/><polygon class="cls-1" points="862.94 407.11 862.28 449.75 848.67 449.75 849.33 407.11 862.94 407.11"/><polygon class="cls-1" points="876.55 407.11 875.89 449.75 862.28 449.75 862.94 407.11 876.55 407.11"/><polygon class="cls-1" points="890.16 407.11 889.5 449.75 875.89 449.75 876.55 407.11 890.16 407.11"/><polygon class="cls-1" points="903.78 407.11 903.11 449.75 889.5 449.75 890.16 407.11 903.78 407.11"/><polygon class="cls-1" points="917.39 407.11 916.72 449.75 903.11 449.75 903.78 407.11 917.39 407.11"/><polygon class="cls-1" points="931 407.11 930.33 449.75 916.72 449.75 917.39 407.11 931 407.11"/><polygon class="cls-1" points="930.33 449.75 931 407.11 937.04 407.11 937.04 449.75 930.33 449.75"/></g><path class="cls-1" d="M957.17,510.63v42.66a20.35,20.35,0,0,1-18.55,20.28H922.85a9.09,9.09,0,0,0-1.06.09,5.91,5.91,0,0,0-4.78,5c0,.14,0,.29-.07.43v10.79a20.35,20.35,0,0,1-20.36,20.37H722.74a20.35,20.35,0,0,1-20.36-20.37V567.57H903.24a11.22,11.22,0,0,0,10.42-7,11,11,0,0,0,.84-4.27V544.21a11.35,11.35,0,0,0-.84-4.26,11.2,11.2,0,0,0-9.4-7l-145-.06a21.07,21.07,0,0,1-5-.62,20.45,20.45,0,0,1-15.37-19.75V490.28H936.8A20.35,20.35,0,0,1,957.17,510.63Z"/><g class="cls-5"><rect class="cls-1" x="702.38" y="490.28" width="5.22" height="119.93"/><rect class="cls-1" x="707.6" y="490.28" width="2.8" height="119.93"/><rect class="cls-1" x="710.4" y="490.28" width="2.8" height="119.93"/><rect class="cls-1" x="713.21" y="490.28" width="2.8" height="119.93"/><rect class="cls-1" x="716.01" y="490.28" width="2.8" height="119.93"/><rect class="cls-1" x="718.81" y="490.28" width="2.8" height="119.93"/><rect class="cls-1" x="721.61" y="490.28" width="2.8" height="119.93"/><rect class="cls-1" x="724.42" y="490.28" width="2.8" height="119.93"/><rect class="cls-1" x="727.22" y="490.28" width="2.8" height="119.93"/><rect class="cls-1" x="730.02" y="490.28" width="2.8" height="119.93"/><rect class="cls-1" x="732.82" y="490.28" width="2.8" height="119.93"/><rect class="cls-1" x="735.63" y="490.28" width="2.8" height="119.93"/><rect class="cls-1" x="738.43" y="490.28" width="2.8" height="119.93"/><rect class="cls-1" x="741.23" y="490.28" width="2.8" height="119.93"/><rect class="cls-1" x="744.03" y="490.28" width="2.8" height="119.93"/><rect class="cls-1" x="746.84" y="490.28" width="2.8" height="119.93"/><rect class="cls-1" x="749.64" y="490.28" width="2.8" height="119.93"/><rect class="cls-1" x="752.44" y="490.28" width="2.8" height="119.93"/><rect class="cls-1" x="755.24" y="490.28" width="2.8" height="119.93"/><rect class="cls-1" x="758.05" y="490.28" width="2.8" height="119.93"/><rect class="cls-1" x="760.85" y="490.28" width="2.8" height="119.93"/><rect class="cls-1" x="763.65" y="490.28" width="2.8" height="119.93"/><rect class="cls-1" x="766.45" y="490.28" width="2.8" height="119.93"/><rect class="cls-1" x="769.26" y="490.28" width="2.8" height="119.93"/><rect class="cls-1" x="772.06" y="490.28" width="2.8" height="119.93"/><rect class="cls-1" x="774.86" y="490.28" width="2.8" height="119.93"/><rect class="cls-1" x="777.66" y="490.28" width="2.8" height="119.93"/><rect class="cls-1" x="780.47" y="490.28" width="2.8" height="119.93"/><rect class="cls-1" x="783.27" y="490.28" width="2.8" height="119.93"/><rect class="cls-1" x="786.07" y="490.28" width="2.8" height="119.93"/><rect class="cls-1" x="788.87" y="490.28" width="2.8" height="119.93"/><rect class="cls-1" x="791.68" y="490.28" width="2.8" height="119.93"/><rect class="cls-1" x="794.48" y="490.28" width="2.8" height="119.93"/><rect class="cls-1" x="797.28" y="490.28" width="2.8" height="119.93"/><rect class="cls-1" x="800.08" y="490.28" width="2.8" height="119.93"/><rect class="cls-1" x="802.89" y="490.28" width="2.8" height="119.93"/><rect class="cls-1" x="805.69" y="490.28" width="2.8" height="119.93"/><rect class="cls-1" x="808.49" y="490.28" width="2.8" height="119.93"/><rect class="cls-1" x="811.29" y="490.28" width="2.8" height="119.93"/><rect class="cls-1" x="814.1" y="490.28" width="2.8" height="119.93"/><rect class="cls-1" x="816.9" y="490.28" width="2.8" height="119.93"/><rect class="cls-1" x="819.7" y="490.28" width="2.8" height="119.93"/><rect class="cls-1" x="822.5" y="490.28" width="2.8" height="119.93"/><rect class="cls-1" x="825.31" y="490.28" width="2.8" height="119.93"/><rect class="cls-1" x="828.11" y="490.28" width="2.8" height="119.93"/><rect class="cls-1" x="830.91" y="490.28" width="2.8" height="119.93"/><rect class="cls-1" x="833.71" y="490.28" width="2.8" height="119.93"/><rect class="cls-1" x="836.52" y="490.28" width="2.8" height="119.93"/><rect class="cls-1" x="839.32" y="490.28" width="2.8" height="119.93"/><rect class="cls-1" x="842.12" y="490.28" width="2.8" height="119.93"/><rect class="cls-1" x="844.92" y="490.28" width="2.8" height="119.93"/><rect class="cls-1" x="847.73" y="490.28" width="2.8" height="119.93"/><rect class="cls-1" x="850.53" y="490.28" width="2.8" height="119.93"/><rect class="cls-1" x="853.33" y="490.28" width="2.8" height="119.93"/><rect class="cls-1" x="856.13" y="490.28" width="2.8" height="119.93"/><rect class="cls-1" x="858.94" y="490.28" width="2.8" height="119.93"/><rect class="cls-1" x="861.74" y="490.28" width="2.8" height="119.93"/><rect class="cls-1" x="864.54" y="490.28" width="2.8" height="119.93"/><rect class="cls-1" x="867.34" y="490.28" width="2.8" height="119.93"/><rect class="cls-1" x="870.15" y="490.28" width="2.8" height="119.93"/><rect class="cls-1" x="872.95" y="490.28" width="2.8" height="119.93"/><rect class="cls-1" x="875.75" y="490.28" width="2.8" height="119.93"/><rect class="cls-1" x="878.55" y="490.28" width="2.8" height="119.93"/><rect class="cls-1" x="881.36" y="490.28" width="2.8" height="119.93"/><rect class="cls-1" x="884.16" y="490.28" width="2.8" height="119.93"/><rect class="cls-1" x="886.96" y="490.28" width="2.8" height="119.93"/><rect class="cls-1" x="889.76" y="490.28" width="2.8" height="119.93"/><rect class="cls-1" x="892.57" y="490.28" width="2.8" height="119.93"/><rect class="cls-1" x="895.37" y="490.28" width="2.8" height="119.93"/><rect class="cls-1" x="898.17" y="490.28" width="2.8" height="119.93"/><rect class="cls-1" x="900.97" y="490.28" width="2.8" height="119.93"/><rect class="cls-1" x="903.78" y="490.28" width="2.8" height="119.93"/><rect class="cls-1" x="906.58" y="490.28" width="2.8" height="119.93"/><rect class="cls-1" x="909.38" y="490.28" width="2.8" height="119.93"/><rect class="cls-1" x="912.19" y="490.28" width="2.8" height="119.93"/><rect class="cls-1" x="914.99" y="490.28" width="2.8" height="119.93"/><rect class="cls-1" x="917.79" y="490.28" width="2.8" height="119.93"/><rect class="cls-1" x="920.59" y="490.28" width="2.8" height="119.93"/><rect class="cls-1" x="923.4" y="490.28" width="2.8" height="119.93"/><rect class="cls-1" x="926.2" y="490.28" width="2.8" height="119.93"/><rect class="cls-1" x="929" y="490.28" width="2.8" height="119.93"/><rect class="cls-1" x="931.8" y="490.28" width="2.8" height="119.93"/><rect class="cls-1" x="934.61" y="490.28" width="2.8" height="119.93"/><rect class="cls-1" x="937.41" y="490.28" width="2.8" height="119.93"/><rect class="cls-1" x="940.21" y="490.28" width="2.8" height="119.93"/><rect class="cls-1" x="943.01" y="490.28" width="2.8" height="119.93"/><rect class="cls-1" x="945.82" y="490.28" width="2.8" height="119.93"/><rect class="cls-1" x="948.62" y="490.28" width="2.8" height="119.93"/><rect class="cls-1" x="951.42" y="490.28" width="2.8" height="119.93"/><rect class="cls-1" x="954.22" y="490.28" width="2.8" height="119.93"/><rect class="cls-1" x="957.03" y="490.28" width="0.14" height="119.93"/></g><path class="cls-1" d="M375.4,468.34v30.24c0,9.07,0,18.06,0,27.09a50.44,50.44,0,0,1-22.47,41.88,49.38,49.38,0,0,1-12.18,5.8c-2.83.9-5.26,2.26-5.59,5.55-.5,5.52.76,11.08-.75,16.52a20.68,20.68,0,0,1-19.74,14.8c-8.28.07-16.52,0-24.76,0H156.82c-12.22,0-26.59,1.25-32.53-12.29a24.27,24.27,0,0,1-1.69-10.18V490.23h13.22c3,0,5.91,0,8.92,0a15.5,15.5,0,0,1,2.26.14,20.59,20.59,0,0,1,18.31,20.21c.07,5.23,0,10.46,0,15.69v41.2H301.06c2.79,0,18.48-.43,21.31-1.25,11.4-3.41,8.64-14.26,9.25-26.37,0-.22,0-.43,0-.68.15-7.53,0-15.08,0-22.61V486.08c0-2.76,0-5.52,0-8.28a28.23,28.23,0,0,0-4.55-14,30.68,30.68,0,0,0-17.29-13.05,21,21,0,0,0-6-1H122.6V427.57a20.71,20.71,0,0,1,20.68-20.67H314.13a61.32,61.32,0,0,1,61.27,61.44Z"/><g class="cls-6"><rect class="cls-1" x="122.6" y="406.9" width="2.75" height="204.57"/><rect class="cls-1" x="125.35" y="406.9" width="2.75" height="204.57"/><rect class="cls-1" x="128.1" y="406.9" width="2.75" height="204.57"/><rect class="cls-1" x="130.85" y="406.9" width="2.75" height="204.57"/><rect class="cls-1" x="133.59" y="406.9" width="2.75" height="204.57"/><rect class="cls-1" x="136.34" y="406.9" width="2.75" height="204.57"/><rect class="cls-1" x="139.09" y="406.9" width="2.75" height="204.57"/><rect class="cls-1" x="141.84" y="406.9" width="2.75" height="204.57"/><rect class="cls-1" x="144.59" y="406.9" width="2.75" height="204.57"/><rect class="cls-1" x="147.33" y="406.9" width="2.75" height="204.57"/><rect class="cls-1" x="150.08" y="406.9" width="2.75" height="204.57"/><rect class="cls-1" x="152.83" y="406.9" width="2.75" height="204.57"/><rect class="cls-1" x="155.58" y="406.9" width="2.75" height="204.57"/><rect class="cls-1" x="158.33" y="406.9" width="2.75" height="204.57"/><rect class="cls-1" x="161.07" y="406.9" width="2.75" height="204.57"/><rect class="cls-1" x="163.82" y="406.9" width="2.75" height="204.57"/><rect class="cls-1" x="166.57" y="406.9" width="2.75" height="204.57"/><rect class="cls-1" x="169.32" y="406.9" width="2.75" height="204.57"/><rect class="cls-1" x="172.07" y="406.9" width="2.75" height="204.57"/><rect class="cls-1" x="174.81" y="406.9" width="2.75" height="204.57"/><rect class="cls-1" x="177.56" y="406.9" width="2.75" height="204.57"/><rect class="cls-1" x="180.31" y="406.9" width="2.75" height="204.57"/><rect class="cls-1" x="183.06" y="406.9" width="2.75" height="204.57"/><rect class="cls-1" x="185.81" y="406.9" width="2.75" height="204.57"/><rect class="cls-1" x="188.55" y="406.9" width="2.75" height="204.57"/><rect class="cls-1" x="191.3" y="406.9" width="2.75" height="204.57"/><rect class="cls-1" x="194.05" y="406.9" width="2.75" height="204.57"/><rect class="cls-1" x="196.8" y="406.9" width="2.75" height="204.57"/><rect class="cls-1" x="199.55" y="406.9" width="2.75" height="204.57"/><rect class="cls-1" x="202.29" y="406.9" width="2.75" height="204.57"/><rect class="cls-1" x="205.04" y="406.9" width="2.75" height="204.57"/><rect class="cls-1" x="207.79" y="406.9" width="2.75" height="204.57"/><rect class="cls-1" x="210.54" y="406.9" width="2.75" height="204.57"/><rect class="cls-1" x="213.28" y="406.9" width="2.75" height="204.57"/><rect class="cls-1" x="216.03" y="406.9" width="2.75" height="204.57"/><rect class="cls-1" x="218.78" y="406.9" width="2.75" height="204.57"/><rect class="cls-1" x="221.53" y="406.9" width="2.75" height="204.57"/><rect class="cls-1" x="224.28" y="406.9" width="2.75" height="204.57"/><rect class="cls-1" x="227.02" y="406.9" width="2.75" height="204.57"/><rect class="cls-1" x="229.77" y="406.9" width="2.75" height="204.57"/><rect class="cls-1" x="232.52" y="406.9" width="2.75" height="204.57"/><rect class="cls-1" x="235.27" y="406.9" width="2.75" height="204.57"/><rect class="cls-1" x="238.02" y="406.9" width="2.75" height="204.57"/><rect class="cls-1" x="240.76" y="406.9" width="2.75" height="204.57"/><rect class="cls-1" x="243.51" y="406.9" width="2.75" height="204.57"/><rect class="cls-1" x="246.26" y="406.9" width="2.75" height="204.57"/><rect class="cls-1" x="249.01" y="406.9" width="2.75" height="204.57"/><rect class="cls-1" x="251.76" y="406.9" width="2.75" height="204.57"/><rect class="cls-1" x="254.5" y="406.9" width="2.75" height="204.57"/><rect class="cls-1" x="257.25" y="406.9" width="2.75" height="204.57"/><rect class="cls-1" x="260" y="406.9" width="2.75" height="204.57"/><rect class="cls-1" x="262.75" y="406.9" width="2.75" height="204.57"/><rect class="cls-1" x="265.5" y="406.9" width="2.75" height="204.57"/><rect class="cls-1" x="268.24" y="406.9" width="2.75" height="204.57"/><rect class="cls-1" x="270.99" y="406.9" width="2.75" height="204.57"/><rect class="cls-1" x="273.74" y="406.9" width="2.75" height="204.57"/><rect class="cls-1" x="276.49" y="406.9" width="2.75" height="204.57"/><rect class="cls-1" x="279.24" y="406.9" width="2.75" height="204.57"/><rect class="cls-1" x="281.98" y="406.9" width="2.75" height="204.57"/><rect class="cls-1" x="284.73" y="406.9" width="2.75" height="204.57"/><rect class="cls-1" x="287.48" y="406.9" width="2.75" height="204.57"/><rect class="cls-1" x="290.23" y="406.9" width="2.75" height="204.57"/><rect class="cls-1" x="292.98" y="406.9" width="2.75" height="204.57"/><rect class="cls-1" x="295.72" y="406.9" width="2.75" height="204.57"/><rect class="cls-1" x="298.47" y="406.9" width="2.75" height="204.57"/><rect class="cls-1" x="301.22" y="406.9" width="2.75" height="204.57"/><rect class="cls-1" x="303.97" y="406.9" width="2.75" height="204.57"/><rect class="cls-1" x="306.71" y="406.9" width="2.75" height="204.57"/><rect class="cls-1" x="309.46" y="406.9" width="2.75" height="204.57"/><rect class="cls-1" x="312.21" y="406.9" width="2.75" height="204.57"/><rect class="cls-1" x="314.96" y="406.9" width="2.75" height="204.57"/><rect class="cls-1" x="317.71" y="406.9" width="2.75" height="204.57"/><rect class="cls-1" x="320.45" y="406.9" width="2.75" height="204.57"/><rect class="cls-1" x="323.2" y="406.9" width="2.75" height="204.57"/><rect class="cls-1" x="325.95" y="406.9" width="2.75" height="204.57"/><rect class="cls-1" x="328.7" y="406.9" width="2.75" height="204.57"/><rect class="cls-1" x="331.45" y="406.9" width="2.75" height="204.57"/><rect class="cls-1" x="334.19" y="406.9" width="2.75" height="204.57"/><rect class="cls-1" x="336.94" y="406.9" width="2.75" height="204.57"/><rect class="cls-1" x="339.69" y="406.9" width="2.75" height="204.57"/><rect class="cls-1" x="342.44" y="406.9" width="2.75" height="204.57"/><rect class="cls-1" x="345.19" y="406.9" width="2.75" height="204.57"/><rect class="cls-1" x="347.93" y="406.9" width="2.75" height="204.57"/><rect class="cls-1" x="350.68" y="406.9" width="2.75" height="204.57"/><rect class="cls-1" x="353.43" y="406.9" width="2.75" height="204.57"/><rect class="cls-1" x="356.18" y="406.9" width="2.75" height="204.57"/><rect class="cls-1" x="358.93" y="406.9" width="2.75" height="204.57"/><rect class="cls-1" x="361.67" y="406.9" width="2.75" height="204.57"/><rect class="cls-1" x="364.42" y="406.9" width="2.75" height="204.57"/><rect class="cls-1" x="367.17" y="406.9" width="2.75" height="204.57"/><rect class="cls-1" x="369.92" y="406.9" width="2.75" height="204.57"/><rect class="cls-1" x="372.67" y="406.9" width="2.75" height="204.57"/><rect class="cls-1" x="375.41" y="406.9" width="0.09" height="204.57"/></g><path class="cls-1" d="M475.47,649.37a12.46,12.46,0,0,1,8.35,2.77l-1.62,2.4a10.58,10.58,0,0,0-6.47-2.24c-5.39,0-8.64,3.93-8.64,8.84,0,5.33,3.64,9,8.45,9a9.39,9.39,0,0,0,6.5-2.86V664H478.3v-2.8H485v11.54h-2.83v-1.43c0-.49,0-1,0-1h-.07a9.88,9.88,0,0,1-7.05,2.79c-6.18,0-11.28-4.87-11.28-11.9A11.56,11.56,0,0,1,475.47,649.37Z"/><path class="cls-1" d="M498,649.76h7a11.69,11.69,0,0,1,4.29.52A6.82,6.82,0,0,1,509,662.7v.07a6.41,6.41,0,0,1,.68,1l4.88,8.9h-3.64l-4.84-9.13h-4.91v9.13H498Zm7.83,11a3.82,3.82,0,0,0,4.07-4.16,3.75,3.75,0,0,0-1.82-3.54,6.3,6.3,0,0,0-3.16-.52h-3.7v8.22Z"/><path class="cls-1" d="M537,649.37a11.57,11.57,0,0,1,11.77,11.7,11.78,11.78,0,1,1-23.56,0A11.59,11.59,0,0,1,537,649.37Zm0,20.77c4.68,0,8.45-3.9,8.45-9.07a8.47,8.47,0,1,0-16.93,0C528.51,666.24,532.31,670.14,537,670.14Z"/><path class="cls-1" d="M561.07,649.76h3.22v14.83c0,3.51,2.28,5.55,5.79,5.55s5.85-2,5.85-5.62V649.76h3.22v14.83c0,5.1-3.68,8.51-9,8.51s-9-3.41-9-8.51Z"/><path class="cls-1" d="M593,649.76h8.39a6.85,6.85,0,0,1,7.21,7.19,6.93,6.93,0,0,1-7.21,7.28h-5.17v8.48H593Zm7.87,11.67a4.14,4.14,0,0,0,4.45-4.48,4.06,4.06,0,0,0-4.42-4.39h-4.68v8.87Z"/><rect class="cls-1" x="122.57" y="660.34" width="288.8" height="1.79"/><rect class="cls-1" x="668.64" y="660.34" width="288.8" height="1.79"/></svg>